<?xml version="1.0" encoding="utf-8"?>
<!-- Generator: Adobe Illustrator 18.1.1, SVG Export Plug-In . SVG Version: 6.00 Build 0)  -->
<svg version="1.0" id="Livello_1" xmlns="http://www.w3.org/2000/svg" xmlns:xlink="http://www.w3.org/1999/xlink" x="0px" y="0px"
	 viewBox="0 0 300 60" enable-background="new 0 0 300 60" xml:space="preserve">
<g>
	<g>
		<path fill="#C4281B" d="M18.6,42.8c-3.9,0-5.3-0.7-5.3-2.4c0-2.2,0.9-3.1,5.1-3.1h4.4c5.5,0,6.1,0.7,6.1,2.7
			c0,1.8-0.6,2.8-7.5,2.8H18.6z M3.7,41.5c0,6.3,3.9,7.6,10,7.6h6.8c5,0,6-0.6,8.8-3.4v3h9.5V31.2c0-6.3-3.7-9.5-10.5-9.5H16.6
			c-8.4,0-12,1.2-12,8.4h9.7c0.1-1.9,0.9-2.1,3.9-2.1h5.9c3.9,0,4.7,0.9,4.7,3.5v2.3c-1.9-2-5-2.1-10.4-2.1
			c-9.7,0-14.7,0.4-14.7,7.7V41.5z"/>
	</g>
	<g>
		<path fill="#C4281B" d="M41.9,33.9c0-10.1,5-12.3,12.3-12.3h11.3c7.4,0,11.9,2.7,11.9,8.8v2.4h-9.7c0-2.7-1.4-3.7-5.8-3.7h-3.9
			c-4.2,0-6.2,1.1-6.2,4.1v3.5c0,3.4,2.2,4.5,5.3,4.5h5.1c2.8,0,5.4-0.6,5.4-3.1v-0.6h9.7v2.3c0,7.1-5.9,9.2-11.7,9.2H55.5
			c-6.6,0-13.6-1.3-13.6-12.6V33.9z"/>
		<path fill="#C4281B" d="M84.9,29.3h-5v-7.2h5v-6.3h10v6.3h15.5v7.2H94.9v10.2c0,2,1.5,2.4,3.9,2.4c3.2,0,4.1-0.7,4.1-3.2v-1.8h8.8
			v3.2c0,5.1-3.3,8.9-11.3,8.9h-4c-6.1,0-11.5-1.9-11.5-9.3V29.3z"/>
		<path fill="#C4281B" d="M138.8,34.1c0-3.8,2.2-5,6.8-5h2.4c6.5,0,7.7,0.8,7.7,4.4v3.7c0,3.5-1.3,4.4-7.7,4.4h-2.4
			c-4.6,0-6.8-1.1-6.8-5V34.1z M128.8,38.6c0,8.8,5.9,10.5,11,10.5h15c5.1,0,11-1.8,11-10.5v-6.4c0-8.8-5.9-10.5-11-10.5h-15
			c-5.1,0-11,1.8-11,10.5V38.6z"/>
	</g>
	<g>
		<path fill="#C4281B" d="M169.4,22.1h10v4.3h0.1c1.8-3.7,5.3-4.7,10.6-4.7c6.2,0,14.9,0.3,14.9,11.7v15.3h-10V33.4
			c0-2.6-2.1-3.9-6.5-3.9h-2.3c-4.3,0-6.8,2-6.8,5.8v13.4h-10V22.1z"/>
		<path fill="#C4281B" d="M223.1,42.8c-3.9,0-5.3-0.7-5.3-2.4c0-2.2,0.9-3.1,5.1-3.1h4.4c5.5,0,6.1,0.7,6.1,2.7
			c0,1.8-0.6,2.8-7.5,2.8H223.1z M208.2,41.5c0,6.3,3.9,7.6,10,7.6h6.8c5,0,6-0.6,8.8-3.4v3h9.5V31.2c0-6.3-3.6-9.5-10.5-9.5h-11.6
			c-8.4,0-12,1.2-12,8.4h9.7c0.1-1.9,0.9-2.1,3.9-2.1h5.9c3.9,0,4.7,0.9,4.7,3.5v2.3c-1.9-2-5-2.1-10.4-2.1
			c-9.7,0-14.7,0.4-14.7,7.7V41.5z"/>
	</g>
	<g>
		<path fill="#C4281B" d="M256.9,48.7h-10V22.1h10V48.7z M256.9,18.7h-10v-7.8h10V18.7z"/>
		<path fill="#C4281B" d="M269.8,33.8c0-3,0.5-4.6,5.3-4.6h5.9c4,0,6,0.9,6,4.9v2.6c0,4-2.1,4.9-6,4.9H275c-4.8,0-5.3-1.7-5.3-4.6
			V33.8z M260.1,37.8c0,6.8,1.6,11.3,14.2,11.3h2.9c6,0,8.5-2,9.6-5.3h0.1v4.9h9.4V10.9h-10V27h-0.1c-0.6-4.2-4.8-5.3-9-5.3h-3
			c-12.7,0-14.2,4.5-14.2,11.3V37.8z"/>
		<rect x="115.3" y="22" fill-rule="evenodd" clip-rule="evenodd" fill="#C4281B" width="9.8" height="15.5"/>
		<rect x="115.3" y="40.8" fill-rule="evenodd" clip-rule="evenodd" fill="#C4281B" width="9.8" height="7.6"/>
	</g>
</g>
</svg>